<svg xmlns="http://www.w3.org/2000/svg" viewBox="0 0 298.3818 482.3261"><defs><style>.cls-1{fill:#231f20;}</style></defs><g id="katman_2" data-name="katman 2"><g id="katman_1-2" data-name="katman 1"><path class="cls-1" d="M85.0765,373.8111c-1.2078-32.0868.5539-63.8565,9.4651-94.9158a105.8108,105.8108,0,0,1,18.1709-36.4139c15.219-19.4919,37.4339-22.8694,59.2028-14.4179,9.8793,3.8366,15.4015,14.4975,14.2919,26.6206-1.3522,14.7583-5.4981,28.8491-13.793,41.18-22.381,33.2767-38.3112,69.1712-46.1962,108.5981a191.16,191.16,0,0,1-11.0229,35.698c-3.459,8.3456-6.684,11.9166-12.3848,11.6137-4.9012-.2611-11.7935-7.6688-12.772-14.15-1.0036-6.6513-1.9391-13.3366-2.4071-20.04-1.02-14.5793-1.7225-29.1807-2.5547-43.7727M137.185,126.0573c21.5819-12.3229,37.6326-29.639,46.3017-53.2139,2.5912-7.0454,4.5141-14.3543,4.06-21.9712-.58-9.7235-5.78-13.3252-15.1-10.7313a31.6528,31.6528,0,0,0-13.2328,7.8617c-4.6179,4.3373-9.0281,9.07-14.24,12.57-19.7214,13.2433-40.7624,23.81-64.0139,29.4648-11.9186,2.8983-19.0264,10.0236-18.7011,18.8182a24.725,24.725,0,0,0,19.7053,23.1852c6.271,1.2747,12.6116,1.2042,20.9774,1.2933C113.5973,133.84,125.98,132.4562,137.185,126.0573Zm76.1413,30.9843q5.9971,18.4323,24.439,24.0485c16.79,5.1158,31.6344-6.1955,28.7428-22.3047a89.5129,89.5129,0,0,0-6.7038-20.1778c-8.1769-18.3957-12.5664-37.4847-12.2808-57.6506a51.6449,51.6449,0,0,0-3.0581-16.97c-2.8164-8.4992-6.5894-9.5284-13.3553-3.4515a56.1948,56.1948,0,0,0-12.2072,15.9511c-7.7151,14.734-9.9427,30.6006-9.9208,42.5794C208.8216,134.8432,209.7661,146.0965,213.3263,157.0416Zm-17.19,5.9877c-3.1215-4.625-7.33-6.7822-12.8957-4.5719-8.7485,3.4738-17.4732,7.0129-25.6731,11.7a14.0688,14.0688,0,0,0-6.2417,6.5639c-3.1134,7.0686-.8649,10.7014,6.81,10.8065a51.9245,51.9245,0,0,0,9.787-.3349c5.5337-.9917,9.922.4771,14.1716,4.1217,3.99,3.4216,8.6805,4.7794,13.8472,1.7817,5.0405-2.9238,5.2474-7.6215,5.1158-12.5353C200.9815,174.2723,199.6918,168.2963,196.1361,163.0293Z"/><path class="cls-1" d="M75.9937,168.7016c-23.52,2.2727-41.402-7.2314-56.6574-24.2231-.6767,1.984.3744,3.848.687,5.7209,4.6093,27.6528,11.52,55.02,10.2851,83.3956-.2677,6.145-.3934,12.2964-.6827,18.44-.6138,13.0273,3.9725,24.4875,10.5155,35.377a68.6778,68.6778,0,0,1,5.9494,11.5412c-11.9941-13.1832-26.4117-25.5672-25.2817-45.447,1.0237-18.0033-2.4259-35.2189-5.5349-52.5871-4.6749-26.1053-10.1624-52.0708-14.47-78.2324C-3.2387,98.1346,8.3045,80.4,27.8422,67.0334,34.6847,62.3521,42.35,59.2493,50.227,56.5457c32.4511-11.1333,63.9576-24.34,92.6918-43.4328a16.9265,16.9265,0,0,1,4.6227-2.1756,61.0793,61.0793,0,0,1-19.0566,18.34A460.5716,460.5716,0,0,1,57.074,64.18C42.063,70.04,29.4368,78.7006,22.1484,94.1711c-10.485,22.2577-.31,56.1114,25.6941,65.448,7.7846,2.7959,15.3195,6.2175,23.6931,6.9993,1.3863.1293,3.1387-.2368,4.4581,2.0832m149.7111,75.8836c-8.7247,9.4855-17.4213,18.9964-24.6493,29.7245-15.7,23.3015-26.3384,49.0984-36.7132,74.9922-5.8641,14.6358-12.51,29.1646-16.3289,44.3626-5.1166,20.3624-10.2071,40.5148-19.1325,59.6644-10.8734,23.3308-35.3793,21.169-48.0055,6.3773-5.0843-5.9553-8.0215-13.0136-10.37-20.4147C68.56,433.1583,68.6609,426.77,67.6193,420.53c-1.512-9.0627-3.2309-18.1232-4.0761-27.2568-1.0325-11.1631-1.2516-22.403-1.823-33.6088a306.38,306.38,0,0,0-2.3987,47.72c.2818,16.5063,2.6334,32.6423,9.5569,47.7538,5.569,12.1543,14.0536,21.5679,27.3256,25.65,19.4591,5.9865,39.4107-5.9819,44.2747-27.5174,11.5375-51.0884,29.797-99.8227,50.5175-147.7444,9.4923-21.9513,19.42-43.6106,37.2075-60.4534a6.5985,6.5985,0,0,0,.88-1.7066C227.0429,242.5748,226.4,243.8291,225.7048,244.5852Zm15.7212-18.376c15.1717,3.1272,29.1863,2.2678,41.1661-9.5918,15.6669-15.5076,22.769-51.4842,6.67-69.4065-3.5731-3.9782-6.3-8.7039-9.5735-12.9647-9.9058-12.8935-16.2769-26.9218-14.525-43.6873.1052-1.0183.6629-2.2231-.7564-3.387a16.3452,16.3452,0,0,0-2.99,8.4392c-1.6628,14.5933,2.6835,27.65,9.8655,40.1015,6.31,10.9382,14.0953,21.24,16.3253,34.0963,2.933,16.9237-.4285,37.1094-16.8866,48.1274-5.26,3.5209-10.6623,5.8269-17.166,5.5475-7.63-.3268-15.2919.1557-24.4715-1.514A38.6806,38.6806,0,0,0,241.426,226.2092ZM249.5408,28.81c9.2118.2947,12.9809,1.0106,15.9892,14.2052,1.3627,5.9772,1.5162,12.1428,2.8927,18.1616,1.4632-9.1831,1.968-18.3129-.7356-27.2381a13.5563,13.5563,0,0,0-7.45-8.4266c-10.22-4.736-29.3338-.5637-38.3551,9.131C231.8136,31.4405,240.32,28.5153,249.5408,28.81ZM195.47,9.5088c6.408,5.4863,7.1358,13.7281,9.2487,22.4212C208.0751,11.7245,199.223.0285,181.9263,0h-.0534A47.88,47.88,0,0,0,172.74.9436C181.044,3.0764,189.1935,4.1308,195.47,9.5088Z"/></g></g></svg>